<?xml version="1.0" encoding="utf-8"?>
<!-- Generator: Adobe Illustrator 26.3.1, SVG Export Plug-In . SVG Version: 6.00 Build 0)  -->
<svg version="1.1" id="Layer_1" xmlns="http://www.w3.org/2000/svg" xmlns:xlink="http://www.w3.org/1999/xlink" x="0px" y="0px"
	 viewBox="0 0 1920 1080" style="enable-background:new 0 0 1920 1080;" xml:space="preserve">
<style type="text/css">
	.st0{fill:#729C1F;}
	.st1{fill:#8F7B56;}
	.st2{fill:#D6C19A;}
	.st3{fill:#D1D16D;}
	.st4{fill:#B8B863;}
	.st5{fill:#79684D;}
	.st6{fill:#201804;}
	.st7{fill:#CEBB74;}
	.st8{fill:#707357;}
	.st9{fill:#C9C498;}
	.st10{fill:#CBD694;}
	.st11{fill:#C6D0C2;}
	.st12{fill:#FFFFFF;}
	.st13{fill:#37291C;}
	.st14{fill:none;stroke:#000000;stroke-width:2;stroke-miterlimit:10;}
</style>
<g>
	<g>
		<path class="st0" d="M691.16,520.09L691.16,520.09c2.23-4.73,5.33-9.13,6.75-14.14c1.42-5.01,0.72-11.07-3.54-14.29
			c-2.58-1.96-5.99-2.54-9.26-2.99c-8.81-1.2-17.7-1.83-26.6-1.89c-1.35-0.01-2.78-0.03-3.91-0.72c-1.02-0.63-1.62-1.7-2.46-2.54
			c-4.72-4.7-14.71-0.57-19.05-5.88c-2.96-1.94-5.99-3.8-9.05-5.6c0,0,0,0,0,0c-0.35,0.1-0.7,0.19-1.04,0.29
			c-31.84,9.05-63.68,18.11-95.52,27.16c-12.68,3.61-25.42,7.23-37.34,12.72c-22.79,10.5-42.06,27.84-53.78,48.91
			c-2.12,14.56,5.45,28.89,14.96,40.47c1.5,1.83,3.09,3.63,4.76,5.35c28.78-25.54,62.53-45.98,99.04-59.87
			C596.63,531.29,646.54,522.61,691.16,520.09z"/>
		<path class="st0" d="M1301.71,470.26c11.9,27.29,3.22,60.32,17.69,86.46c0,0,1.62,0.69,1.66,0.41
			c16.36,1.56,32.71,3.13,49.07,4.69c10.96,1.05,21.99,2.11,32.62,4.86c10.81,2.8,21.09,7.38,30.26,13.62
			c0.01,0,0.01,0.01,0.02,0.01c0-0.61-0.01-1.22-0.04-1.82c-0.48-10.7-4.74-20.89-9.45-30.61c-12.64-26.08-30.54-51.9-57.86-61.24
			c-16.01-11.57-29.38-26.46-46.58-36.37c-7.85-4.52-16.42-7.76-25.31-9.78C1296.9,450.31,1302.26,459.72,1301.71,470.26z"/>
		<path class="st1" d="M1577.62,744.4c-10.27-1.3-20.61,1.27-30.58,3.95c0.75-7.6-7.12-13.74-14.98-15.23
			c-7.85-1.49-15.96,0.12-23.96-0.13c-22.33-0.7-41.37-15.62-55.7-31.97c-5.34-6.1-10.32-12.68-14.61-19.61
			c0,0.01-0.01,0.01-0.01,0.02c-0.45,0.66-0.89,1.32-1.33,1.98c-13.83,20.6-26.8,41.72-38.88,63.29c1.7,0.89,3.35,1.89,4.99,2.88
			c5.9,3.6,12.23,7.73,14.2,14.14c0.67,2.19,0.78,4.51,1.45,6.7c1.72,5.61,7.45,9.87,12.64,9.88c6.22,5.1,6.1,15.47,13.22,19.37
			c3.07,1.68,6.79,1.7,10.33,1.68c10.84-0.07,21.68-0.14,32.53-0.22c6.06-0.04,13.06-0.52,16.59-5.21c3.01-4,2.14-9.76-0.69-13.87
			c-2.83-4.12-7.24-6.96-11.53-9.7c15.8-2.96,32.17-3.15,48.04-0.54c14.46,2.38,30.72,6.7,42.75-1.3
			c6.07-4.04,11.85-11.25,18.93-9.2C1598.19,751.81,1587.89,745.7,1577.62,744.4z"/>
		<path class="st1" d="M1246.53,731.33c13.38-9.3,23.07-22.33,32.51-35.29c10.25-14.08,13.3-29.5,21.95-44.02
			c-19.22,4.21-38.79,6.99-58.47,8.35c0,0,0.01,0,0.01,0c7.62,0.92,15.25,1.84,22.87,2.76c4.11,0.5,8.37,1.04,11.91,3.09
			c3.54,2.05,6.2,6.06,5.22,9.91c-1.04,4.09-5.51,6.4-9.62,7.94c-47.15,17.73-102.38,1.9-149.93,18.6
			c-5.11,1.79-10.86,5.01-10.98,10.2c-0.09,3.86,3.29,7.16,7.1,8.45c3.81,1.29,7.99,1.01,12.42,0.96
			c11.3,0.83,22.71,0.23,33.85-1.77c2.18,4.47-5.3,9.73-2.58,13.92c0.73,1.12,2.03,1.77,3.29,2.3c8.58,3.64,18.41,4.54,27.56,2.53
			c3.04-0.67,6.05-1.65,9.17-1.69c3.12-0.03,6.5,1.13,8,3.73c1.02,1.76,1.03,3.89,1.72,5.79c0.68,1.9,2.59,3.77,4.81,4.49
			c1.39-0.02,2.78-0.04,4.17-0.05C1231.29,745.94,1240.53,739.56,1246.53,731.33z"/>
		<path class="st1" d="M767.37,693.91c4.62-0.63,9.29-1.04,14.02-1.14c19.35-0.41,38.48,4.15,57.84,4.34
			c7.92,0.08,17.63-1.84,19.95-9.06c2.71-8.41-7.17-15.65-16.12-17.77c-8.95-2.13-19.4-2.69-25.16-9.56
			c-2.24-2.67-3.72-6.25-7.03-7.56c-1.71-0.68-3.64-0.6-5.49-0.51c-8.6,0.4-17.19,0.8-25.79,1.2c-7.78,0.36-16.71,0.1-23.36-3.06
			c-0.32,0.89-0.61,1.79-0.85,2.7C751.64,667.59,757.54,682.68,767.37,693.91z"/>
		<path class="st1" d="M624.46,698.95c12.15-8.96,24.09-19.68,28.13-33.81c1.37-4.77,1.76-9.74,2.15-14.68
			c0.76-9.63,1.52-19.26,0.97-27.56c1.06-2.29,2.12-4.59,3.18-6.88c-9.91,0.37-19.85,0.15-29.73-0.68
			c-17.29-1.46-34.56-2.46-51.86-3.93c-6.15-0.52-12.08-0.27-17.88,0.43c2.43-0.03,4.86-0.12,7.28-0.1c2.21,0.02,5.07,0.61,5.31,2.7
			c0.1,0.89-0.38,1.74-0.84,2.53c-3.3,5.6-6.6,11.21-9.9,16.81c-7.69,13.06-15.53,26.32-26.69,36.85
			c-7.66,7.23-17.59,13.27-28.37,12.92c-3.43-0.11-6.87-0.88-10.28-0.47c-3.41,0.4-6.98,2.42-7.59,5.64
			c-0.46,2.45,0.74,5.4-1.05,7.21c-0.6,0.61-1.44,0.94-2.25,1.26c-3.67,1.43-7.34,2.87-11.02,4.3c-5.54,2.16-11.2,4.39-15.64,8.21
			c-4.45,3.82-7.52,9.6-6.36,15.2c0.39,1.87,1.31,3.74,2.95,4.82c1.67,1.1,3.82,1.25,5.85,1.32c15.68,0.55,31.44-1.19,46.58-5.13
			c1.43-0.37,3.23-0.65,4.14,0.46c0.49,0.61,0.52,1.44,0.52,2.21c0.04,6.77,0.08,13.54,0.12,20.31c0.01,1.73,1.4,4.19,3.13,3.33
			c2.79,4.05,8.61,4.73,13.68,5.02c9.47,0.54,18.95,1.08,28.42,1.62c2.37,0.13,4.86,0.25,6.99-0.75c4.4-2.07,5.21-7.79,4.24-12.38
			c-0.97-4.58-3.13-9.1-2.47-13.74c0.66-4.63,6.1-9.03,10.29-6.6c2.04,1.18,3,3.52,4.74,5.08c2.2,1.97,5.38,2.5,8.37,2.87
			c2.73,0.34,5.48,0.61,8.22,0.83c2.87-5.47,4.47-12.08,7.66-17.47C609.86,709.29,617.4,704.16,624.46,698.95z"/>
		<path class="st2" d="M577.3,611.41c17.29,1.46,34.56,2.47,51.86,3.93c9.88,0.84,19.82,1.06,29.73,0.68
			c10.35-22.5,20.3-45.31,25.29-69.39c1.86-8.97,3.05-18.21,6.99-26.55l0,0h0c-44.62,2.52-94.53,11.2-136.04,26.99
			c-36.52,13.89-70.27,34.33-99.04,59.87c4.45,4.58,9.55,8.56,15.63,10.76c11.71,4.24,24.74,1.27,37.05-1
			c16.69-3.07,33.67-4.64,50.67-4.87C565.22,611.13,571.15,610.89,577.3,611.41z"/>
		<path class="st0" d="M1161.27,775.38c4.73-0.48,9.3-2.26,14.06-2.27c4.76,0,10.14,2.69,10.58,7.21c0.32,3.34-2.11,6.28-4.39,8.83
			c-22.81,25.41-45.62,50.81-68.42,76.22c30.15-13.63,60.3-27.27,90.45-40.9c15.12-6.84,30.53-13.76,47.1-15.94
			c32.94-4.33,65.55,10.74,91.62,30.42c4.74,3.58,9.54,7.42,15.39,8.88c5.39,1.35,11.08,0.52,16.59-0.29
			c1.14-0.17,2.28-0.32,3.43-0.49c-3.82-2.33-7.33-5.12-10.31-8.38c-6.94-7.58-11.03-17.63-10.62-27.68
			c5.73-15.4,24.2-23.85,29.56-39.1c0.94-2.69,1.44-5.5,2.4-8.18c0.86-2.41,2.09-4.69,3.32-6.95
			c13.62-25.07,28.45-49.55,44.42-73.33c8.93-13.29,18.35-26.65,22.79-41.86c4.43-15.21,3.01-32.96-7.98-44.76
			c-12.48-15.01-29.71-25.24-48.5-30.1c-10.63-2.75-21.66-3.81-32.62-4.86c-16.36-1.56-32.71-3.13-49.07-4.69
			c-0.04,0.28-1.66-0.41-1.66-0.41c-14.46-26.14-5.79-59.17-17.69-86.46c0.63-12.03-6.44-22.58-9.11-33.96
			c-1.33-5.68-1.56-11.55-2.87-17.23c-1.41-6.08-4.03-11.85-6.39-17.63c-3.07-6.38-8.08-16.77-11.15-23.15
			c-1.66-3.03-2.86-5.88-4.1-8.72c-5.97-13.7-12.82-27.03-19.66-40.35c-9.44-18.37-18.88-36.75-29.28-54.65
			c-3.73-6.42-7.9-13.09-14.62-16.67c-4.46-2.38-9.63-3.17-14.68-3.92c-10.33-1.54-20.72-3.08-31.17-2.79
			c-3.7-3.17-7.39-6.58-11.08-9.99c-2.03-1.88-4.14-3.8-6.77-4.8c-25.76-22.1-64.06-29.56-96.92-19.28
			c-3.12,0.98-6.18,2.12-9.22,3.33c-7.38,3.38-14.22,7.75-21.25,11.75c-7.79,4.43-15.84,8.4-23.9,12.37
			c-1.13,0.56-2.27,1.11-3.42,1.62c-3.57,2.38-7.29,4.46-11.5,5.46c-14.37-1.03-29.41-1.97-44.46-2.91
			c-10.42-0.65-20.98-1.3-31.23,0.62c-32.11-3.55-63.72-5.36-95.33-5.3c-6.57,0.01-13.28,0.09-19.53-1.84
			c-4.3-1.33-8.23-3.56-12.06-5.84c-17.9-10.67-34.72-22.98-53.16-32.78c-18.44-9.79-39.01-17.09-60.11-16.53
			c-8.98-0.55-18.37,3.12-24.71,9.54c1.36,1.84,2.63,3.73,3.68,5.74c2.54,4.9,3.86,10.29,4.91,15.66c9.61,49.2-2.25,101.9-32.2,143
			c-3.54,4.85-7.56,9.71-12.4,13.3c-0.07,0.35-0.13,0.7-0.23,1.04c-0.95,14.39-1.47,28.85-2.09,43.31c-0.13,3.1,0.31,4.36,0.31,9.36
			c0,3.16,4.62,4.35,5.99,6.81c0.59,1.06,0.96,2.17,1.2,3.32c27.22-1.6,54.7,2.87,81.84,6.61c41.57,5.73,83.4,9.69,125.34,11.87
			c16.94,0.88,33.92,1.47,50.88,1.01c15.89-0.43,31.75-1.78,47.65-1.98c21.04-0.25,42.05,1.53,62.99,3.53
			c69.08,6.62,137.89,15.74,206.25,27.33c2.31,0.39,4.74,0.84,6.52,2.28c0.79,0.64,1.36,1.46,1.84,2.33
			c0.32-2.71,0.65-5.43,0.97-8.14c0.17-1.45,0.35-2.92,0.98-4.25c1.46-3.09,5.13-4.8,8.68-4.99c3.55-0.19,7.03,0.87,10.39,1.98
			c5.48,1.81,11.03,3.88,15.33,7.58c6.63,5.72,9.37,15.21,6.74,23.36c-3.33,0.73-7.32,1.3-9.75-1c-0.95-0.9-1.5-2.13-2.37-3.11
			c-1.89-2.1-5.1-2.73-7.96-2.29c-2.86,0.44-5.46,1.8-8,3.13c-2.42,1.27-5.02,2.72-6.03,5.17c-1.38,3.33,0.7,7.18-0.32,10.63
			c-0.39,1.31-1.29,2.47-2.46,3.23c-0.14,0.31-0.28,0.62-0.46,0.92c-2.43,3.86-7.85,4.7-12.57,4.86
			c-5.29,0.19-10.59-0.05-15.86-0.54c0.01,0.03,0.03,0.05,0.04,0.08c-15.78-0.73-31.6-0.03-47.39-0.76
			c-2.7-0.13-5.56-0.22-7.95,0.98c-2.4,1.2-4.03,4.2-2.53,7.44c-11.57,11.33-23.94,24.48-23.52,40.29
			c0.22,8.29,4.04,16.09,8.34,23.3c4.15,6.96,9.57,14.18,17.72,16.09c10.36,2.42,22.3-4.49,31.43,0.75
			c4.02,2.31,6.41,6.5,10.01,9.37c5.43,4.34,12.94,5.21,19.99,5.91c17.45,1.73,34.89,3.46,52.34,5.2
			c21.16,2.1,42.77,4.18,63.52-0.31c10.12-2.19,19.85-5.92,28.98-10.63c-1.77,9.35-7.07,15.5-13.78,26.64
			c-8.66,14.52-11.7,29.94-21.95,44.02c-9.44,12.97-19.13,25.99-32.51,35.29c-7.35,10.1-19.58,17.4-31.68,23.87
			c-5.05,2.7-10.23,5.35-15.86,6.63c-6.33,1.44-12.94,1.1-19.44,0.75c-17.48-0.94-34.96-1.88-52.44-2.82
			C1137.61,768.42,1148.08,776.71,1161.27,775.38z M773.93,393.36c-10.19-1.94-21.41,3.16-26.26,11.92c1.66-8.4,2.5-16.95,2.51-25.5
			c-3.92-1.57-7.84-3.13-11.76-4.7c4.6-1.41,9.2-2.82,13.8-4.23c1.07-0.33,2.16-0.67,3.06-1.3c1.27-0.9,2.04-2.29,2.75-3.64
			c8.18-15.46,15.01-31.57,20.39-48.11c-1.6,11.64-3.82,23.79-5.92,35.96C770.22,366.99,768.19,381.12,773.93,393.36z
			 M860.23,345.64c-0.23,1.34,0.8,2.59,0.92,3.94c0.18,1.91-1.57,3.61-3.52,4.07c-1.95,0.46-4-0.05-5.88-0.74
			c-2.93-1.09-5.87-2.88-6.86-5.73c-1.29-3.68,1.46-7.88,5.25-9.3c2.73-1.02,5.75-0.84,8.57,0.02c0.12-0.24,0.89-0.34,1.69-0.24
			c1.71,0.21,3.38,1.67,3.09,3.29C863.16,342.83,860.55,343.75,860.23,345.64z M1184.74,329.92c-1.13,12.33-5.88,26.61-13,37.69
			c0.1,0.14,0.17,0.29,0.23,0.43c0.06-0.08,0.11-0.16,0.18-0.24c0.05,1.3,0.09,0.86-0.18,0.24c-2.06,2.54-2.14,6.05-2.93,9.19
			c-1.37,5.47-5.12,10.08-8.76,14.51c-0.61,0.74-1.27,1.52-2.21,1.8c-0.99,0.3-2.35,0.14-2.6,1.72c-9.7,5.74-20.96,9.07-32.37,9.55
			c-5.96,0.25-11.94-0.25-17.8-1.33c-23.06-4.24-43.56-17.2-60.02-33.16c-2.9-2.82-5.72-5.76-7.81-9.17
			c-3.04-4.97-4.39-10.7-5.38-16.38c-0.6-3.41-1.07-6.99,0.1-10.27c0.5-1.41,1.34-2.63,2.34-3.71c-0.72-1.55-1.32-3.14-1.64-4.8
			c-0.68-3.54-0.08-7.17,0.07-10.77c0.22-5.5-0.62-11.04,0.01-16.51c0.56-4.9,2.29-9.61,4.18-14.19
			c5.39-13.06,12.36-25.74,22.51-35.9c10.15-10.16,23.75-17.66,38.42-18.74c2,0.25,3.99,0.52,5.76,1.18
			c11.3-0.56,22.75,1.9,32.65,7.13l0.01-0.23c12.41,10.52,18.74,10.53,29.71,25.59c10.96,15.05,16.42,33.27,18.24,51.52
			C1184.96,319.99,1185.2,324.97,1184.74,329.92z M1224.22,468.76c-1.1-1.86-2.03-3.82-2.78-5.83c-0.48-1.29-0.9-2.65-0.77-4.02
			c0.33-3.41,4.04-5.8,7.63-6.02c3.59-0.22,7.05,1.16,8.07,1.35c4.72,3.9,6.73,10.53,4.91,16.23c-0.82,2.56-3.23,5.28-5.92,4.5
			c-0.84-0.24-1.53-0.8-2.35-1.1c-1.22-0.44-2.59-0.28-3.84-0.6C1226.89,472.7,1225.37,470.71,1224.22,468.76z M1258.02,503.91
			c-0.65,1.07-1.69,1.85-2.72,2.61c-2.33,1.73-4.73,3.49-7.56,4.29c-2.83,0.81-6.21,0.46-8.23-1.59c-3.7-3.76-0.77-10.01-2.3-14.95
			c-0.8-2.59-2.79-4.67-4.61-6.74c-1.82-2.07-3.6-4.4-3.81-7.1c-0.22-2.7,1.81-5.72,4.65-5.69c2.39,0.02,4.16,1.99,5.85,3.59
			c3.14,2.98,7.08,5.17,11.34,6.31c3.87,1.03,7.74,8.22,8.19,14.88C1258.91,501.03,1258.81,502.61,1258.02,503.91z M1282.64,482.07
			c-1.06,1.92-3.7,3.08-5.73,2.51c0.55,2.8,1.04,5.66,0.73,8.49c-0.32,2.89-1.59,5.81-4.01,7.59c-1.7,1.24-4.18,1.81-5.99,0.7
			c-0.91-0.56-1.53-1.47-2.02-2.4c-1.35-2.53-1.93-5.29-2.11-8.12c-0.57,0.17-1.17,0.26-1.76,0.13c-2.29-0.49-3.28-3.01-4.91-4.62
			c-1.08-1.07-2.57-1.85-3.19-3.21c-0.43-0.95-0.36-2.03-0.26-3.06c0.41-4.13,1.25-8.23,2.48-12.21c1.1-0.88,6.41,0.95,9.04,4.41
			c0.98,1.29,1.65,2.73,2.09,4.25c2.29-0.63,4.87-0.08,6.71,1.36c-0.41-1.32-1.26-2.46-1.91-3.69c-0.95-1.79-1.35-3.77-1.35-5.75
			c-0.85,0.42-1.8,0.6-2.75,0.38c-0.8-0.19-1.51-0.62-2.2-1.04c-3.3-2.01-6.63-4.06-9.3-6.79c-2.67-2.73-4.64-6.28-4.62-10.01
			c0.02-3.13,1.4-6.08,2.76-8.93c0.31-0.64,0.63-1.31,1.23-1.72c1.06-0.75,2.56-0.44,3.8,0.02c0.69,0.26,1.36,0.55,2.02,0.88
			c-1.02-1.46-1.56-3.2-1.77-4.97c-1.88,1.25-4.68,1.44-6.83,0.4c0.66,1.36,1.06,2.79,0.72,4.23c-0.49,2.07-2.41,3.63-4.51,4.36
			c-1.86,0.65-3.87,0.75-5.87,0.8c2.21,1.04,4.02,2.94,4.78,5.19c0.62,1.83,0.66,3.85,1.64,5.52c1.73,2.95,6.25,4.85,5.63,8.17
			c-0.16,0.86-0.68,1.62-1.01,2.44c-0.81,2.01-0.43,4.28-0.91,6.38c-0.68,3.01-3.01,5.39-5.25,7.6c-0.32,0.31-0.7,0.65-1.16,0.61
			c-0.37-0.03-0.66-0.31-0.91-0.56c-1.02-1.04-2.04-2.08-3.07-3.13c-0.96-0.98-1.97-2.09-1.99-3.42c-0.01-1.09,0.65-2.06,1.13-3.05
			c1.46-3.02,1.24-6.58,0.16-9.73c-1.09-3.16-2.98-6-4.85-8.8c-3.91-5.86-1.69-7.93,1.94-8.05c-0.06-0.06-0.14-0.1-0.19-0.17
			c-0.5-0.7-0.41-1.61-0.49-2.45c-0.17-1.95-1.37-3.8-3.13-4.82c-0.97-0.56-2.07-0.87-3.02-1.47c-2.74-1.72-3.4-5.66-1.7-8.34
			c1.7-2.68,5.28-3.99,8.52-3.53c3.25,0.46,6.1,2.48,7.97,5.06c-0.84-1.09-0.3-0.64,0.74,0.51c-0.26-0.99-0.45-2-0.54-3
			c-0.36-4.15,0.65-8.87,4.3-11.17c-4.68-0.7-2.91-1.52-1.15-2.33c2.41-1.12,5.19-2.25,7.68-1.29c1.59,0.61,2.7,1.97,3.73,3.27
			c1.38,1.74,2.77,4.26,1.27,5.92c-0.51,0.56-1.26,0.88-1.82,1.39c-1.43,1.31-1.3,3.52-0.79,5.34c0.11,0.39,0.23,0.78,0.35,1.17
			c2.04-2.7,6-4.07,9.32-2.93c-0.55,1.24,2.33,3.33,3.9,5.92c0.74,1.22,1.23,2.55,1.61,3.91c0-0.01,0-0.02,0-0.03
			c0.37-1.49,1.68-2.88,3.29-2.91c-4.05-0.43-1.74-1.46-0.06-0.89c1.21,0.41,1.91,1.59,2.48,2.68c1.82,3.52,3.32,7.18,4.5,10.94
			c0.57,1.82,0.91,4.12-0.64,5.3c-1.19,0.91-3.03,0.63-4.23-0.27s-1.9-2.26-2.49-3.6c-0.58-1.29-1.08-2.62-1.55-3.95
			c0.1,1.15,0.09,2.29-0.18,3.41c-0.49,1.97-2.01,3.85-4.11,4.19c-0.16,0.03-0.32,0-0.49,0c0.16,0.23,0.33,0.45,0.48,0.68
			c-0.56,2.23-0.06,4.56,0.38,6.82c0.07,0.37,0.13,0.76,0.2,1.14c1.13-1.47,2.54-2.71,4.22-3.61c-0.09-0.2-0.18-0.39-0.28-0.58
			c-3.33-2.98-1.96-2.45-1.05-1.52c0.44,0.45,0.76,0.97,1.05,1.52c0.17,0.15,0.3,0.27,0.49,0.44c-0.08,0.04-0.14,0.1-0.22,0.14
			c0.21,0.47,0.41,0.94,0.59,1.42c1.95,5.35,3.52,10.81,4.72,16.36C1283.54,476.64,1283.99,479.61,1282.64,482.07z M1296.13,473.39
			c-0.39,1.02-1.38,2.06-2.48,1.79c-0.74-0.18-1.19-0.88-1.55-1.52c-3.44-6.07-6.17-12.51-8.1-19.16c2.47,0.01,4.94,0.74,6.98,2.08
			c-4.37,1.35-2.15,3.26-0.01,5.24C1294.31,464.91,1297.73,469.21,1296.13,473.39z"/>
		<path class="st0" d="M633.58,733.8c9.46-8.05,16.65-18.22,25.42-26.96c1.66-1.65,3.8-3.38,6.14-2.92c3.11,0.6,4,4.36,4.25,7.38
			c0.56,6.88,1.12,13.75,1.68,20.63c4.48-5.17,11.75-8.01,18.74-7.35c2.16,0.2,4.4,0.71,6.45,0.03c5.09-1.69,4.89-8.45,6.68-13.3
			c3.77-10.18,17.37-12.41,28.32-15.18c2.57-0.65,5.18-1.45,7.18-3.12c4.74-3.96,4.31-10.97,3.69-16.96
			c-1.82-17.47-1.24-36.94,11.17-50.18c0.53-0.3,1.1-0.49,1.66-0.73c-15.78-9.7-29.3-23.78-31.97-41.27
			c-1.34-8.8,0.17-17.75,0.36-26.64c0.38-17.88-13.46-31.04-30.21-40.95c-0.69,1.26-1.36,2.52-1.97,3.81
			c-3.94,8.34-5.13,17.57-6.99,26.55c-5.49,26.53-17.02,51.53-28.46,76.27c0.55,8.3-0.21,17.93-0.97,27.56
			c-0.39,4.93-0.79,9.9-2.15,14.68c-4.04,14.13-15.98,24.85-28.13,33.81c-7.06,5.21-14.6,10.34-18.98,17.75
			c-5.22,8.83-6.18,20.97-15.45,25.95c-0.05,0.02-0.1,0.04-0.14,0.06c3.01,0.99,6.02,2.05,9.07,2.64
			C611.39,747.73,624.11,741.85,633.58,733.8z"/>
		<path class="st0" d="M1300.99,652.01c-1.63,0.31-3.23,0.64-4.8,0.99C1297.79,652.68,1299.39,652.36,1300.99,652.01z"/>
		<path class="st3" d="M1192.45,512.31c0.85,3.33,1.63,7.02,0.25,10.09c1.17-0.76,2.07-1.92,2.46-3.23
			c1.02-3.44-1.05-7.3,0.32-10.63c1.01-2.45,3.61-3.9,6.03-5.17c2.54-1.33,5.14-2.68,8-3.13c2.86-0.44,6.08,0.19,7.96,2.29
			c0.88,0.97,1.42,2.2,2.37,3.11c2.43,2.3,6.42,1.73,9.75,1c2.63-8.15-0.11-17.64-6.74-23.36c-4.3-3.71-9.85-5.77-15.33-7.58
			c-3.36-1.11-6.84-2.17-10.39-1.98c-3.55,0.19-7.22,1.9-8.68,4.99c-0.63,1.33-0.81,2.8-0.98,4.25c-0.32,2.71-0.65,5.43-0.97,8.14
			c0.81,1.46,1.31,3.12,1.72,4.74C1189.63,501.34,1191.04,506.83,1192.45,512.31z"/>
		<path class="st3" d="M1250.62,484.64c-4.26-1.14-8.21-3.33-11.34-6.31c-1.69-1.6-3.46-3.58-5.85-3.59c-2.84-0.02-4.86,3-4.65,5.69
			c0.21,2.7,1.99,5.03,3.81,7.1c1.82,2.07,3.81,4.15,4.61,6.74c1.53,4.94-1.4,11.2,2.3,14.95c2.02,2.05,5.41,2.4,8.23,1.59
			c2.83-0.81,5.23-2.57,7.56-4.29c1.02-0.76,2.07-1.54,2.72-2.61c0.79-1.3,0.89-2.88,0.79-4.39
			C1258.36,492.86,1254.49,485.68,1250.62,484.64z"/>
		<path class="st3" d="M1264.06,480.46c0.18-1.49,0.38-3.05,2.45-3.8c0.16-0.06,0.33-0.08,0.49-0.13c-0.43-1.52-1.11-2.97-2.09-4.25
			c-2.63-3.46-7.94-5.29-9.04-4.41c-1.23,3.98-2.07,8.08-2.48,12.21c-0.1,1.03-0.17,2.11,0.26,3.06c0.62,1.36,2.11,2.14,3.19,3.21
			c1.63,1.62,2.62,4.13,4.91,4.62c0.59,0.13,1.19,0.04,1.76-0.13C1263.29,487.42,1263.66,483.88,1264.06,480.46z"/>
		<path class="st3" d="M1273.72,477.91c0-0.01-0.01-0.01-0.01-0.02c-1.84-1.43-4.42-1.99-6.71-1.36c-0.16,0.04-0.33,0.07-0.49,0.13
			c-2.08,0.75-2.28,2.31-2.45,3.8c-0.41,3.42-0.77,6.96-0.55,10.39c0.18,2.83,0.76,5.59,2.11,8.12c0.49,0.93,1.11,1.83,2.02,2.4
			c1.8,1.11,4.29,0.54,5.99-0.7c2.42-1.77,3.69-4.69,4.01-7.59c0.31-2.83-0.18-5.69-0.73-8.49c-0.57-0.16-1.09-0.43-1.52-0.88
			C1273.98,482.19,1274.32,479.86,1273.72,477.91z"/>
		<path class="st3" d="M1273.23,458.6c-0.44-2.26-0.94-4.59-0.38-6.82c-0.15-0.23-0.32-0.45-0.48-0.68
			c-0.49,0.01-0.98-0.07-1.35-0.37c-0.49-0.41-0.64-1.06-0.89-1.64c-1.38-3.32-5.78-4.39-8.21-7.11c-0.21-0.23-0.36-0.5-0.54-0.75
			c-0.66-0.32-1.33-0.62-2.02-0.88c-1.23-0.46-2.74-0.77-3.8-0.02c-0.59,0.42-0.92,1.09-1.23,1.72c-1.36,2.85-2.74,5.8-2.76,8.93
			c-0.02,3.73,1.95,7.28,4.62,10.01c2.67,2.73,6,4.78,9.3,6.79c0.69,0.42,1.4,0.85,2.2,1.04c0.95,0.22,1.89,0.04,2.75-0.38
			c-0.01-3.1,1.04-6.22,2.97-8.71C1273.36,459.36,1273.3,458.98,1273.23,458.6z"/>
		<path class="st3" d="M1233.01,473.87c0.82,0.3,1.51,0.85,2.35,1.1c2.69,0.78,5.1-1.93,5.92-4.5c1.82-5.7-0.19-12.33-4.91-16.23
			c-1.02-0.19-4.48-1.58-8.07-1.35c-3.59,0.22-7.31,2.61-7.63,6.02c-0.13,1.37,0.28,2.73,0.77,4.02c0.75,2.01,1.68,3.97,2.78,5.83
			c1.15,1.95,2.68,3.94,4.95,4.51C1230.42,473.59,1231.79,473.43,1233.01,473.87z"/>
		<path class="st3" d="M1239.27,445.23c-3.63,0.11-5.85,2.19-1.94,8.05c1.87,2.8,3.76,5.64,4.85,8.8c1.09,3.16,1.3,6.72-0.16,9.73
			c-0.48,0.99-1.14,1.96-1.13,3.05c0.01,1.34,1.03,2.45,1.99,3.42c1.02,1.04,2.04,2.08,3.07,3.13c0.25,0.26,0.54,0.53,0.91,0.56
			c0.46,0.04,0.84-0.3,1.16-0.61c2.24-2.22,4.57-4.6,5.25-7.6c0.48-2.1,0.1-4.37,0.91-6.38c0.33-0.82,0.85-1.58,1.01-2.44
			c0.63-3.33-3.9-5.22-5.63-8.17c-0.98-1.68-1.02-3.7-1.64-5.52c-0.77-2.25-2.57-4.15-4.78-5.19c-0.25,0.01-0.49,0.01-0.74,0.02
			C1241.28,446.09,1240,446,1239.27,445.23z"/>
		<path class="st3" d="M1270.14,449.1c0.24,0.58,0.4,1.23,0.89,1.64c0.36,0.3,0.86,0.38,1.35,0.37c0.16,0,0.33,0.02,0.49,0
			c2.09-0.34,3.61-2.22,4.11-4.19c0.28-1.12,0.28-2.26,0.18-3.41c-0.32-0.92-0.63-1.84-0.9-2.77c-0.42-1.47-0.77-3.03-0.41-4.51
			c-0.38-1.36-0.87-2.69-1.61-3.91c-1.57-2.59-4.45-4.67-3.9-5.92c-3.32-1.14-7.28,0.23-9.32,2.93c0.45,1.45,0.87,2.92,0.53,4.37
			c-0.26,1.11-0.99,1.95-1.92,2.56c0.21,1.77,0.75,3.51,1.77,4.97c0.18,0.25,0.33,0.52,0.54,0.75
			C1264.36,444.71,1268.75,445.78,1270.14,449.1z"/>
		<path class="st3" d="M1276.25,440.74c0.27,0.93,0.58,1.85,0.9,2.77c0.47,1.33,0.97,2.66,1.55,3.95c0.6,1.34,1.29,2.7,2.49,3.6
			s3.04,1.18,4.23,0.27c1.55-1.18,1.21-3.49,0.64-5.3c-1.18-3.76-2.68-7.42-4.5-10.94c-0.57-1.1-1.27-2.27-2.48-2.68
			c-1.69-0.57-3.99,0.46,0.06,0.89c-1.61,0.03-2.91,1.42-3.29,2.91c0,0.01,0,0.02,0,0.03
			C1275.49,437.71,1275.83,439.26,1276.25,440.74z"/>
		<path class="st3" d="M1290.97,456.58c-2.04-1.33-4.5-2.07-6.98-2.08c1.94,6.65,4.66,13.09,8.1,19.16
			c0.36,0.64,0.81,1.34,1.55,1.52c1.1,0.27,2.09-0.77,2.48-1.79c1.59-4.18-1.83-8.47-5.17-11.57
			C1288.82,459.84,1286.61,457.93,1290.97,456.58z"/>
		<path class="st3" d="M1278.23,457.55c-0.17-0.48-0.38-0.95-0.59-1.42c-1.68,0.89-3.09,2.14-4.22,3.61
			c-1.93,2.5-2.98,5.61-2.97,8.71c0.01,1.99,0.4,3.96,1.35,5.75c0.65,1.23,1.5,2.37,1.91,3.69c0,0.01,0.01,0.01,0.01,0.02
			c0.6,1.95,0.26,4.28,1.67,5.79c0.42,0.45,0.95,0.72,1.52,0.88c2.03,0.57,4.66-0.59,5.73-2.51c1.36-2.46,0.9-5.44,0.31-8.16
			C1281.76,468.37,1280.18,462.9,1278.23,457.55z"/>
		<path class="st3" d="M1277.36,455.55c0.1,0.19,0.19,0.39,0.28,0.58c0.08-0.04,0.14-0.1,0.22-0.14
			C1277.66,455.82,1277.54,455.7,1277.36,455.55z"/>
		<path class="st3" d="M1277.36,455.55c-0.29-0.55-0.61-1.07-1.05-1.52C1275.4,453.1,1274.03,452.57,1277.36,455.55z"/>
		<path class="st3" d="M1247.97,430.03c-1.03-1.15-1.58-1.6-0.74-0.51c-1.86-2.58-4.72-4.6-7.97-5.06
			c-3.25-0.46-6.83,0.85-8.52,3.53c-1.7,2.68-1.04,6.62,1.7,8.34c0.94,0.59,2.05,0.91,3.02,1.47c1.76,1.02,2.96,2.86,3.13,4.82
			c0.07,0.84-0.01,1.76,0.49,2.45c0.05,0.07,0.13,0.11,0.19,0.17c0.73,0.76,2.01,0.86,3.13,0.84c0.25,0,0.49-0.01,0.74-0.02
			c1.99-0.04,4-0.15,5.87-0.8c2.1-0.73,4.01-2.28,4.51-4.36c0.34-1.44-0.06-2.87-0.72-4.23c-0.17-0.08-0.36-0.14-0.52-0.24
			C1249.97,435.01,1248.65,432.61,1247.97,430.03z"/>
		<path class="st3" d="M1261.54,433.7c0.35-1.45-0.08-2.92-0.53-4.37c-0.12-0.39-0.24-0.78-0.35-1.17
			c-0.52-1.82-0.65-4.03,0.79-5.34c0.56-0.51,1.31-0.83,1.82-1.39c1.5-1.66,0.11-4.17-1.27-5.92c-1.03-1.3-2.15-2.66-3.73-3.27
			c-2.49-0.96-5.27,0.17-7.68,1.29c-1.76,0.82-3.53,1.63,1.15,2.33c-3.64,2.3-4.66,7.02-4.3,11.17c0.09,1,0.28,2.01,0.54,3
			c0.68,2.58,1.99,4.98,4.3,6.39c0.16,0.1,0.35,0.16,0.52,0.24c2.15,1.04,4.95,0.85,6.83-0.4
			C1260.55,435.65,1261.28,434.81,1261.54,433.7z"/>
		<path class="st4" d="M860.41,337.66c-0.8-0.1-1.57,0-1.69,0.24c-2.82-0.86-5.85-1.04-8.57-0.02c-3.79,1.42-6.54,5.61-5.25,9.3
			c0.99,2.84,3.93,4.64,6.86,5.73c1.87,0.7,3.93,1.2,5.88,0.74c1.95-0.46,3.69-2.16,3.52-4.07c-0.13-1.35-1.16-2.6-0.92-3.94
			c0.33-1.89,2.93-2.81,3.27-4.69C863.79,339.32,862.12,337.86,860.41,337.66z"/>
		<path class="st5" d="M1155.35,385.85c-9.03,5.56-10.14,7.24-13.77,8.54c-0.77,0.28-1.55,0.54-2.33,0.8
			c1.26,0.4,2.55,1.23,2.19,2.36c-0.22,0.69-0.99,1.06-1.7,1.32c-8.06,3.06-17.11,3.05-25.62,1.44c-8.51-1.62-16.59-4.77-24.62-7.9
			c-3.73-1.46-7.48-2.92-10.96-4.87c-5.41-3.03-10.05-7.18-14.23-11.65c-11.32-12.09-19.46-26.52-27.49-40.81
			c-0.79-1.41-1.59-2.84-2.27-4.31c-1,1.08-1.84,2.3-2.34,3.71c-1.17,3.28-0.7,6.86-0.1,10.27c0.99,5.68,2.34,11.41,5.38,16.38
			c2.09,3.41,4.91,6.36,7.81,9.17c16.46,15.97,36.97,28.93,60.02,33.16c5.86,1.08,11.84,1.58,17.8,1.33
			c11.41-0.49,22.67-3.81,32.37-9.55c0.25-1.57,1.61-1.42,2.6-1.72c0.94-0.28,1.6-1.06,2.21-1.8c3.64-4.43,7.38-9.04,8.76-14.51
			c0.79-3.15,0.87-6.66,2.93-9.19c-0.06-0.14-0.14-0.29-0.23-0.43c-2.48,3.86-5.23,7.33-8.23,10.19
			C1160.71,380.47,1158.68,383.8,1155.35,385.85z"/>
		<path class="st5" d="M1172.15,367.8c-0.07,0.08-0.11,0.16-0.18,0.24C1172.25,368.66,1172.2,369.1,1172.15,367.8z"/>
		<path class="st6" d="M1064.32,375.9c4.18,4.46,8.82,8.61,14.23,11.65c3.48,1.95,7.23,3.41,10.96,4.87
			c8.03,3.13,16.11,6.28,24.62,7.9c8.51,1.62,17.56,1.62,25.62-1.44c0.7-0.27,1.47-0.63,1.7-1.32c0.37-1.14-0.92-1.96-2.19-2.36
			c-2.64,0.86-5.33,1.58-8.11,1.92c-11.48,1.41-23.29,0.26-34.24-3.33c-3.14-1.03-6.38-2.38-8.25-4.99c-1.29-1.8-1.94-4.17-3.9-5.28
			c-1.48-0.84-3.34-0.74-4.98-1.26c-4.32-1.37-5.75-6.36-6.95-10.54c-0.28-0.98-0.64-2.03-1.51-2.61c-0.76-0.5-1.75-0.53-2.65-0.74
			c-3.02-0.73-4.87-3.55-6.4-6.14c-3.09-5.2-6.17-10.39-9.26-15.59c-2.16-3.64-4.36-7.36-5.27-11.45c-0.37-1.67-0.53-3.41-1.29-4.95
			c-0.35-0.71-0.82-1.38-0.95-2.16c-0.18-1.07,0.31-2.12,0.69-3.13c1.99-5.38,0.95-11.28,0.43-16.97
			c-0.98-10.7,0.02-21.57,2.93-31.95c0.45-1.61,0.99-3.28,2.23-4.45c0.82-0.78,1.9-1.3,2.59-2.18c1.33-1.71,0.75-4.1,0.95-6.23
			c0.35-3.85,3.4-7.03,6.83-9.08c3.44-2.05,7.35-3.26,10.9-5.11c2.92-1.52,5.6-3.47,7.9-5.75c1.17-1.16,2.27-2.44,3.73-3.27
			c1.72-0.99,3.78-1.26,5.77-1.51c3.93-0.5,7.86-0.99,11.78-1.49c0.65-0.08,1.34-0.18,1.86-0.57c1.84-1.39-0.31-4.06-2.3-5.24
			c0.7-0.06,1.4-0.06,2.09-0.1c-1.77-0.66-3.76-0.93-5.76-1.18c-14.67,1.09-28.28,8.58-38.42,18.74
			c-10.15,10.16-17.12,22.84-22.51,35.9c-1.89,4.59-3.62,9.29-4.18,14.19c-0.63,5.47,0.22,11.01-0.01,16.51
			c-0.15,3.6-0.74,7.23-0.07,10.77c0.32,1.67,0.91,3.26,1.64,4.8c0.68,1.47,1.48,2.9,2.27,4.31
			C1044.86,349.37,1053,363.81,1064.32,375.9z"/>
		<path class="st7" d="M1166.22,263.52c-10.96-15.05-17.3-15.06-29.71-25.59l-0.01,0.23c-9.9-5.23-21.35-7.69-32.65-7.13
			c-0.7,0.03-1.4,0.04-2.09,0.1c1.99,1.19,4.14,3.86,2.3,5.24c-0.52,0.39-1.21,0.49-1.86,0.57c-3.93,0.5-7.86,0.99-11.78,1.49
			c-1.99,0.25-4.05,0.52-5.77,1.51c-1.45,0.83-2.55,2.1-3.73,3.27c-2.3,2.29-4.98,4.24-7.9,5.75c-3.56,1.85-7.47,3.06-10.9,5.11
			c-3.44,2.05-6.48,5.23-6.83,9.08c-0.19,2.13,0.39,4.51-0.95,6.23c-0.69,0.88-1.77,1.4-2.59,2.18c-1.24,1.17-1.78,2.84-2.23,4.45
			c-2.91,10.38-3.91,21.24-2.93,31.95c0.52,5.69,1.57,11.59-0.43,16.97c-0.38,1.02-0.87,2.07-0.69,3.13
			c0.13,0.77,0.6,1.45,0.95,2.16c0.76,1.55,0.92,3.28,1.29,4.95c0.91,4.09,3.11,7.81,5.27,11.45c3.09,5.2,6.17,10.39,9.26,15.59
			c1.54,2.59,3.38,5.41,6.4,6.14c0.9,0.22,1.89,0.24,2.65,0.74c0.88,0.58,1.23,1.63,1.51,2.61c1.19,4.19,2.63,9.17,6.95,10.54
			c1.64,0.52,3.5,0.41,4.98,1.26c1.96,1.12,2.6,3.49,3.9,5.28c1.88,2.61,5.12,3.96,8.25,4.99c10.95,3.58,22.76,4.73,34.24,3.33
			c2.78-0.34,5.46-1.05,8.11-1.92c0.78-0.25,1.56-0.52,2.33-0.8c3.63-1.3,4.74-2.98,13.77-8.54c3.33-2.05,5.36-5.39,8.16-8.05
			c3-2.86,5.76-6.34,8.23-10.19c7.11-11.08,11.86-25.36,13-37.69c0.46-4.95,0.22-9.93-0.28-14.88
			C1182.65,296.8,1177.19,278.58,1166.22,263.52z"/>
		<path d="M1139.13,293.54c-13.7-1.15-27.47,1.46-40.64,5.26c-8.35,2.41-16.71,5.4-23.45,10.67c10.81,4.67,21.85,8.85,33.07,12.52
			c20.5,6.71,43.59,11.58,63.33,3.05c1.31-0.57,2.67-1.25,3.37-2.45c0.67-1.13,0.63-2.51,0.56-3.81c-0.15-3.08-0.29-6.17,0.25-9.01
			C1166.54,299.93,1152.83,294.69,1139.13,293.54z"/>
		<path class="st8" d="M778.42,317.8c-5.38,16.54-12.21,32.65-20.39,48.11c-0.71,1.35-1.48,2.74-2.75,3.64
			c-0.9,0.64-1.99,0.97-3.06,1.3c-4.6,1.41-9.2,2.82-13.8,4.23c3.92,1.57,7.84,3.13,11.76,4.7c-0.01,8.55-0.85,17.1-2.51,25.5
			c4.85-8.76,16.07-13.86,26.26-11.92c-5.74-12.24-3.71-26.37-1.43-39.61C774.6,341.59,776.81,329.44,778.42,317.8z"/>
		<path class="st9" d="M754.95,625.14c-0.56,0.23-1.13,0.42-1.66,0.73c-12.41,13.24-12.99,32.71-11.17,50.18
			c0.62,5.98,1.06,13-3.69,16.96c-2,1.67-4.61,2.47-7.18,3.12c-10.95,2.76-24.55,4.99-28.32,15.18c-1.79,4.85-1.59,11.61-6.68,13.3
			c-2.05,0.68-4.29,0.17-6.45-0.03c-7-0.66-14.26,2.18-18.74,7.35c-0.56-6.88-1.12-13.75-1.68-20.63c-0.25-3.01-1.14-6.77-4.25-7.38
			c-2.35-0.46-4.49,1.28-6.14,2.92c-8.77,8.74-15.95,18.91-25.42,26.96c-9.46,8.05-22.19,13.94-34.62,11.56
			c-3.05-0.58-6.06-1.65-9.07-2.64c-3.02,1.59-6.63,2.24-9.17,4.48c-2.99,2.64-3.87,6.98-6.97,9.5c-2.01,1.64-4.68,2.28-7.2,3.05
			c-8.47,2.6-16.25,7.24-22.41,13.36c-5.72,5.68-9.75,15.91-1.39,20.21c1.26,0.65,2.65,1.03,4.06,1.26
			c14.45,2.34,29.3,2.35,43.75,0.03c6.19-0.99,13.46-3.48,14.68-9.35c0.55-2.63-0.13-5.87,2.03-7.58c1.16-0.92,2.78-1.04,4.28-1.27
			c6.43-0.98,12.09-4.71,16.64-9.15c2.63-2.56,4.97-5.38,7.3-8.2c6.98-8.43,13.97-16.86,20.95-25.29c2.47,8.49-1.1,18.65-5.59,27.63
			c-4.49,8.98-10.03,17.74-11.63,27.57c-0.82,5.04-0.17,10.97,4.15,13.97c1.83,1.27,4.09,1.84,6.3,2.32
			c16.93,3.68,34.67,3.93,51.71,0.73c6.4-1.2,13.1-3.12,17.33-7.85c7.25-8.12,4.14-20.69-1.4-29.96
			c-4.53-7.59-10.54-14.74-9.94-24.14c0.27-4.19,2.46-8.14,6.26-10.26c7.22-4.02,14.87,0.73,20.93,5.23
			c8.8,6.53,18.72,13.5,29.84,12.63c3.95-0.31,8.41-1.49,11.52,0.85c1.59,1.2,2.42,3.08,3.81,4.48c2.69,2.7,6.93,3.16,10.65,4.28
			c13.52,4.06,21.56,17.71,34.51,23.19c7.2,3.05,15.33,3.31,23.19,2.96c12.94-0.58,25.79-2.71,38.18-6.33
			c4.48-1.31,9.74-3.73,8.92-8.82c-0.19-1.19-0.75-2.3-1.44-3.3c-5.73-8.2-15.99-12.3-26.11-13.81c-4.42-0.66-9.01-0.93-13.07-2.72
			c-4.61-2.03-8.07-5.8-11.76-9.13c-9.86-8.89-22.03-15.03-34-21.14c-14.26-7.28-28.73-14.88-39.63-26.28
			c-10.9-11.4-17.75-27.45-13.81-42.4c2.23-8.43,8.11-16.2,16.43-19.73c-3.6-1.58-7.17-3.23-10.64-5.06
			C759.06,627.58,756.99,626.39,754.95,625.14z"/>
		<path class="st9" d="M1516.15,909.59c-0.12-1.12-0.48-2.21-1.03-3.21c-2.14-3.9-6.14-6.07-10.02-8.11
			c-16.72-8.79-33.94-17.28-52.64-20.97c-2.27-10.19-13.58-16.89-24.63-19.27c-11.05-2.39-22.64-1.76-33.65-4.27
			c-5.85-1.33-11.47-3.61-16.53-6.7c-1.14,0.16-2.29,0.32-3.43,0.49c-5.51,0.81-11.2,1.64-16.59,0.29
			c-5.84-1.46-10.65-5.3-15.39-8.88c-26.07-19.68-58.69-34.75-91.62-30.42c-16.57,2.18-31.99,9.1-47.1,15.94
			c-30.15,13.63-60.3,27.27-90.45,40.9c22.81-25.41,45.62-50.81,68.42-76.22c2.29-2.55,4.71-5.49,4.39-8.83
			c-0.44-4.52-5.82-7.21-10.58-7.21c-4.76,0-9.32,1.79-14.06,2.27c-13.19,1.33-23.66-6.97-34.16-15.62
			c-3.48-0.19-6.97-0.37-10.45-0.56c-2.97-0.16-6.01-0.31-8.89,0.4c-3.27,0.81-6.13,2.67-9.04,4.32
			c-17.34,9.8-38.41,12.42-55.47,22.65c-7.35,0.83-15.37,2.74-23.14,4.24c-5.62,1.09-11.04,2.99-15.95,5.81
			c-2.3,1.32-4.59,2.9-6.08,5.07c-0.85,1.24-1.43,2.65-2.38,3.82c-2.83,3.44-8,3.85-12.56,4.33c-21.67,2.28-42.29,12.64-56.51,28.4
			c-0.85,0.94-1.7,1.95-1.98,3.16c-0.58,2.54,1.56,4.91,3.82,6.37c5.39,3.47,12.1,4.39,18.56,5.01c8.92,0.86,17.87,1.29,26.83,1.38
			c6.64,0.06,14.97,0.18,19.64-4.79c2.18-2.32,3.24-5.46,5.44-7.77c1.44-1.51,3.31-2.59,5.16-3.63
			c24.98-14.04,52.09-24.63,80.22-31.32c4.14-0.99,8.31-1.89,12.48-2.79c-1.18,4.27-1.64,10.09,2.79,11.73
			c1.69,0.62,3.59,0.34,5.17-0.51c3.78-2.02,5.4-5.97,8.53-8.54c5.69-4.68,14.26-3.46,21.61-1.96c1.48,0.3,3.11,0.69,3.99,1.86
			c0.72,0.95,0.77,2.2,1.14,3.31c1.46,4.4,7.14,5.8,11.92,6.51c-10.28,9.94-21.24,19.23-32.79,27.81
			c-9.62,5.4-18.86,9.89-28.09,14.38c-5.55,2.7-11.44,5.71-14.34,10.97c-0.89,1.61-1.58,3.5-3.26,4.36
			c-1.53,0.78-3.38,0.43-5.11,0.33c-5.71-0.33-11.12,2.23-16.22,4.72c-6.63,3.25-13.26,6.49-19.89,9.74
			c-7.58,3.71-15.38,7.59-20.77,13.88c-0.74,0.87-1.46,1.84-1.57,2.95c-0.23,2.36,2.23,4.1,4.51,5.06
			c4.87,2.05,10.18,2.9,15.43,3.73c16.71,2.65,33.46,5.3,50.37,6.19c6,0.32,12.26,0.37,17.73-2.01c3.99-1.73,7.26-4.64,10.48-7.47
			c32.71-28.68,70.03-55.51,113.83-62.64c2.14,0.35,46.22,1.06,68.07,4.07c6.76,0.93,13.54,1.86,20.17,3.44
			c8.91,2.12,17.46,5.38,25.99,8.63c2.69,1.02,5.48,2.12,7.36,4.23c1.26,1.42,2,3.18,2.84,4.86c6.29,12.52,20.03,21.32,34.56,22.16
			c3.61,0.21,7.59-0.18,10.19-2.58c0.66-0.62,1.22-1.35,1.98-1.84c2.47-1.59,5.82-0.06,8.15,1.71c2.33,1.78,4.88,3.94,7.84,3.57
			c1.04-0.13,2.13-0.57,3.09-0.16c1.21,0.52,1.41,2.03,1.78,3.24c1.74,5.73,10.07,8.32,10.73,14.25c6.63,5.23,14.45,8.3,22.44,9.79
			c7.99,1.49,16.2,1.49,24.34,1.23c5.73-0.18,11.53-0.51,16.99-2.19c3.08-0.95,6.03-2.33,9.2-2.97c3.13-0.63,6.38-0.53,9.53-1.09
			C1512.03,917.82,1516.75,915.24,1516.15,909.59z"/>
		<path class="st10" d="M1285.79,636c-20.75,4.49-42.36,2.41-63.52,0.31c-17.45-1.73-34.89-3.46-52.34-5.2
			c-7.05-0.7-14.55-1.58-19.99-5.91c-3.6-2.87-5.99-7.06-10.01-9.37c-9.14-5.24-21.08,1.67-31.43-0.75
			c-8.16-1.91-13.58-9.12-17.72-16.09c-4.3-7.21-8.12-15.01-8.34-23.3c-0.42-15.81,11.95-28.97,23.52-40.29
			c-1.49-3.25,0.14-6.24,2.53-7.44c2.4-1.2,5.25-1.11,7.95-0.98c15.78,0.73,31.6,0.03,47.39,0.76c-0.01-0.03-0.03-0.05-0.04-0.08
			c-7.44-0.69-14.83-1.97-22-3.99c-15.64-4.39-30.14-11.81-45.4-17.31c-23.43-8.45-48.37-12.28-73.11-16.06
			c-39.66-6.06-79.36-12.13-119.4-15.16c-57.2-4.32-114.83-2.42-171.9-8.14c-31.41-3.15-62.57-8.6-94.1-10.3
			c-5.03-0.27-10.36-0.39-14.79,1.91c-3.66,1.89-6.27,6-5.72,9.75c5.35,2.91,10.63,5.95,15.7,9.28c4.34,5.3,14.33,1.18,19.05,5.88
			c0.84,0.84,1.44,1.91,2.46,2.54c1.13,0.7,2.57,0.72,3.91,0.72c8.9,0.06,17.79,0.69,26.6,1.89c3.26,0.44,6.67,1.03,9.26,2.99
			c4.26,3.23,4.96,9.29,3.54,14.29c-1.03,3.64-2.95,6.96-4.78,10.32c16.75,9.91,30.6,23.07,30.21,40.95
			c-0.19,8.9-1.7,17.84-0.36,26.64c2.67,17.49,16.19,31.57,31.97,41.27c2.04,1.25,4.11,2.44,6.21,3.55
			c3.47,1.83,7.04,3.48,10.64,5.06c0.03-0.01,0.06-0.03,0.09-0.05c6.39-0.58,13.46,0.32,20.18,2.31c7.01,2.08,13.58,5.31,20.39,7.94
			c7.07,2.73,14.42,4.79,21.9,6.16c119.94-0.96,339.87,16.13,363.06,13.61c0.02,0,0.03,0,0.06,0c10.05-2.24,20.71-2.26,31.11-2.62
			c22.73-0.78,45.37-3.51,67.6-8.1c1.57-0.35,3.17-0.69,4.8-0.99c6.71-11.14,12.01-17.3,13.78-26.64
			C1305.64,630.08,1295.91,633.81,1285.79,636z"/>
		<path class="st11" d="M834.36,650.11c0.15,0.03,0.3,0.07,0.46,0.09c4.15,0.75,8.36,1.29,12.42,2.4c5.07,1.39,9.82,3.65,14.53,5.9
			c13.31,6.35,27.17,10.31,40.5,16.59c0.36,0.17,0.79,0.13,1.17,0.25c13.09,4.05,31.04,9.57,48.06,12.79
			c8.22,1.56,16.6,2.14,24.96,2.71c14.81,1.02,29.62,2.04,44.43,3.06c13.53,0.93,27.09,1.86,40.65,1.5
			c15.89-0.43,31.67-2.63,47.4-4.83c22.1-3.09,44.7-6.34,64.39-16.38c4.98-2.54,9.73-5.5,14.92-7.62c3-1.22,6.09-2.13,9.24-2.84
			c-0.02,0-0.03,0-0.06,0C1174.22,666.24,954.3,649.15,834.36,650.11z"/>
		<path class="st12" d="M623.11,458.61c4.43-2.29,9.76-2.18,14.79-1.91c31.53,1.69,62.69,7.15,94.1,10.3
			c57.07,5.72,114.69,3.82,171.9,8.14c40.04,3.03,79.74,9.09,119.4,15.16c24.74,3.78,49.67,7.61,73.11,16.06
			c15.25,5.5,29.75,12.91,45.4,17.31c7.18,2.02,14.56,3.29,22,3.99c5.27,0.49,10.57,0.73,15.86,0.54c4.72-0.17,10.14-1,12.57-4.86
			c0.19-0.3,0.32-0.61,0.46-0.92c1.39-3.07,0.61-6.76-0.25-10.09c-1.41-5.49-2.82-10.97-4.22-16.46c-0.42-1.62-0.92-3.28-1.72-4.74
			c-0.48-0.87-1.05-1.69-1.84-2.33c-1.79-1.45-4.21-1.89-6.52-2.28c-68.35-11.59-137.17-20.71-206.25-27.33
			c-20.94-2.01-41.95-3.79-62.99-3.53c-15.9,0.19-31.76,1.55-47.65,1.98c-16.96,0.46-33.94-0.13-50.88-1.01
			c-41.94-2.18-83.77-6.14-125.34-11.87c-27.13-3.74-54.62-8.21-81.84-6.61c-0.34,0.02-0.68,0.03-1.01,0.05
			c0.1,4.65,0.21,9.3,0.31,13.94c0.06,2.93,0.24,6.48,2.48,8.96c1.4,1.55,3.37,2.51,5.27,3.45c2.42,1.2,4.77,2.53,7.15,3.82
			C616.84,464.62,619.45,460.5,623.11,458.61z"/>
		<path class="st13" d="M610.41,361c29.95-41.1,41.82-93.8,32.2-143c-1.05-5.37-2.36-10.76-4.91-15.66
			c-1.05-2.02-2.32-3.9-3.68-5.74c-0.72,0.73-1.39,1.5-2.03,2.31c1.45,1.28,2.36,2.66,2.41,3.95c0.07,1.72,0.98,3.29,1.76,4.84
			c6.67,13.42,3.96,29.09,3.98,43.94c0.01,6.6,0.59,13.24-0.31,19.79c-1.5,11-7.05,21.07-10.77,31.58
			c-3.36,9.51-5.27,19.53-9.87,28.56c-3.26,6.41-7.8,12.15-12.3,17.84c-3.49,4.41-6.99,8.83-11.08,12.73
			c-0.46,0.44-0.96,0.86-1.45,1.29c1.16,1.23,2.32,2.46,3.48,3.68c-0.18,2.56-0.32,5.08-0.47,7.61c0.21-0.15,0.43-0.27,0.63-0.42
			C602.85,370.71,606.87,365.85,610.41,361z"/>
		<path class="st7" d="M595.81,362.13c4.1-3.9,7.6-8.32,11.08-12.73c4.5-5.69,9.04-11.42,12.3-17.84c4.6-9.03,6.51-19.05,9.87-28.56
			c3.72-10.51,9.26-20.58,10.77-31.58c0.9-6.55,0.32-13.19,0.31-19.79c-0.02-14.85,2.7-30.53-3.98-43.94
			c-0.77-1.56-1.69-3.12-1.76-4.84c-0.05-1.3-0.96-2.67-2.41-3.95c-0.46,0.58-0.96,1.13-1.37,1.75
			c-19.42,6.92-37.02,18.4-50.82,33.15c-9.84,10.52-17.89,23.03-20.45,36.91c-1.32,7.14-1.15,14.44-0.79,21.68
			c0.32,6.32,0.78,12.66,2.21,18.84c4.67,20.17,19,36.73,33.58,52.19C594.85,363,595.35,362.58,595.81,362.13z M559.95,274.12
			c1.04-4.16,2.26-8.28,3.67-12.34c1.19-3.44,2.75-7.13,6.05-8.92c1.7-0.93,3.71-1.24,5.67-1.28c6.46-0.13,12.65,2.51,18.17,5.72
			c8.03,4.67,15.21,10.67,21.11,17.66c1.17,1.39,2.36,3.2,1.61,4.84c-0.39,0.85-1.22,1.43-2.03,1.95
			c-14.99,9.63-34.15,13.14-51.82,9.49c1.29,0.03-2.02-3.06-3.03-6.51C558.34,281.28,559.08,277.6,559.95,274.12z"/>
		<path d="M559.35,284.72c1.01,3.45,4.32,6.55,3.03,6.51c17.66,3.65,36.83,0.14,51.82-9.49c0.81-0.52,1.64-1.1,2.03-1.95
			c0.74-1.64-0.44-3.45-1.61-4.84c-5.9-6.99-13.08-12.99-21.11-17.66c-5.52-3.21-11.7-5.85-18.17-5.72
			c-1.96,0.04-3.96,0.35-5.67,1.28c-3.31,1.79-4.86,5.48-6.05,8.92c-1.4,4.06-2.63,8.18-3.67,12.34
			C559.08,277.6,558.34,281.28,559.35,284.72z"/>
	</g>
	<path class="st14" d="M1601,761.32c-7.08-2.05-12.86,5.16-18.93,9.2c-12.04,8-28.29,3.68-42.75,1.3
		c-15.87-2.61-32.24-2.42-48.04,0.54c4.29,2.74,8.7,5.58,11.53,9.7c2.83,4.12,3.7,9.87,0.69,13.87c-3.53,4.69-10.53,5.17-16.59,5.21
		c-10.84,0.07-21.68,0.14-32.53,0.22c-3.54,0.02-7.26,0-10.33-1.68c-7.12-3.9-7-14.27-13.22-19.37c-5.19-0.01-10.92-4.27-12.64-9.88
		c-0.67-2.19-0.77-4.51-1.45-6.7c-1.97-6.41-8.3-10.54-14.2-14.14c-1.63-1-3.28-2-4.99-2.88c12.08-21.58,25.05-42.7,38.88-63.29
		c0.44-0.66,0.89-1.32,1.33-1.98c4.3,6.92,9.29,13.49,14.63,19.59c14.32,16.35,33.37,31.27,55.7,31.97c8,0.25,16.11-1.36,23.96,0.13
		c7.85,1.49,15.73,7.63,14.98,15.23c9.98-2.67,20.31-5.25,30.58-3.95C1587.89,745.7,1598.19,751.81,1601,761.32z M1301.71,470.26
		c11.9,27.29,3.22,60.32,17.69,86.46c0,0,1.62,0.69,1.66,0.41c16.36,1.56,32.71,3.13,49.07,4.69c10.96,1.05,21.99,2.11,32.62,4.86
		c10.81,2.8,21.09,7.38,30.26,13.62c0-0.6,0.01-1.21-0.02-1.81c-0.48-10.7-4.74-20.89-9.45-30.61
		c-12.64-26.08-30.54-51.9-57.86-61.24c-16.01-11.57-29.38-26.46-46.58-36.37c-7.86-4.52-16.42-7.78-25.32-9.81
		C1296.89,450.29,1302.26,459.71,1301.71,470.26z M1246.53,731.33c13.38-9.3,23.07-22.33,32.51-35.29
		c10.25-14.08,13.3-29.5,21.95-44.02c-19.22,4.21-38.79,6.99-58.47,8.35c0,0,0.01,0,0.01,0c7.62,0.92,15.25,1.84,22.87,2.76
		c4.11,0.5,8.37,1.04,11.91,3.09c3.54,2.05,6.2,6.06,5.22,9.91c-1.04,4.09-5.51,6.4-9.62,7.94c-47.15,17.73-102.38,1.9-149.93,18.6
		c-5.11,1.79-10.87,5.01-10.98,10.2c-0.09,3.86,3.29,7.16,7.1,8.45c3.81,1.29,7.99,1.01,12.42,0.96c11.3,0.83,22.71,0.23,33.85-1.77
		c2.18,4.47-5.3,9.73-2.58,13.92c0.73,1.12,2.03,1.77,3.29,2.3c8.58,3.64,18.41,4.54,27.56,2.53c3.04-0.67,6.05-1.65,9.17-1.69
		c3.12-0.03,6.5,1.13,8,3.73c1.02,1.76,1.03,3.89,1.72,5.79c0.68,1.9,2.59,3.77,4.81,4.49c1.39-0.02,2.78-0.04,4.17-0.05
		C1231.29,745.94,1240.53,739.56,1246.53,731.33z M767.37,693.91c4.62-0.63,9.29-1.04,14.02-1.14c19.35-0.41,38.48,4.15,57.83,4.34
		c7.92,0.08,17.63-1.84,19.95-9.06c2.71-8.41-7.17-15.65-16.12-17.77c-8.95-2.13-19.4-2.69-25.16-9.56
		c-2.24-2.67-3.72-6.25-7.03-7.56c-1.72-0.68-3.64-0.6-5.49-0.51c-8.6,0.4-17.19,0.8-25.79,1.2c-7.78,0.36-16.71,0.1-23.36-3.06
		c-0.32,0.89-0.61,1.79-0.85,2.7C751.64,667.59,757.54,682.68,767.37,693.91z M624.46,698.95c12.15-8.96,24.09-19.68,28.13-33.81
		c1.37-4.77,1.76-9.74,2.15-14.68c0.76-9.63,1.52-19.26,0.97-27.56c11.44-24.74,22.97-49.74,28.46-76.27
		c1.86-8.97,3.05-18.21,6.99-26.55c2.23-4.73,5.33-9.13,6.75-14.14c1.42-5.01,0.72-11.07-3.54-14.29c-2.58-1.96-5.99-2.54-9.26-2.99
		c-8.81-1.2-17.7-1.83-26.6-1.89c-1.35-0.01-2.78-0.03-3.91-0.72c-1.02-0.63-1.62-1.7-2.46-2.54c-4.72-4.7-14.71-0.57-19.05-5.88
		c-2.96-1.94-5.99-3.8-9.05-5.6c-0.35,0.1-0.7,0.19-1.04,0.29c-31.84,9.05-63.68,18.11-95.52,27.16
		c-12.68,3.61-25.42,7.23-37.34,12.72c-22.79,10.5-42.06,27.84-53.78,48.91c-2.12,14.56,5.45,28.89,14.96,40.47
		c5.51,6.71,12.03,13.08,20.39,16.11c11.71,4.24,24.74,1.27,37.05-1c19.08-3.51,38.53-5.18,57.96-4.97c2.21,0.02,5.07,0.61,5.31,2.7
		c0.1,0.89-0.38,1.74-0.84,2.53c-3.3,5.6-6.6,11.21-9.9,16.81c-7.69,13.06-15.53,26.32-26.69,36.85
		c-7.66,7.23-17.59,13.27-28.37,12.92c-3.43-0.11-6.87-0.88-10.28-0.47c-3.41,0.4-6.98,2.42-7.59,5.64
		c-0.46,2.45,0.74,5.4-1.05,7.21c-0.6,0.61-1.44,0.94-2.25,1.26c-3.67,1.43-7.34,2.87-11.02,4.3c-5.54,2.16-11.2,4.39-15.64,8.21
		c-4.45,3.82-7.52,9.6-6.36,15.2c0.39,1.87,1.31,3.74,2.95,4.82c1.67,1.1,3.82,1.25,5.85,1.32c15.68,0.55,31.44-1.19,46.58-5.13
		c1.43-0.37,3.23-0.65,4.14,0.46c0.49,0.61,0.52,1.44,0.52,2.21c0.04,6.77,0.08,13.54,0.12,20.31c0.01,1.73,1.4,4.19,3.13,3.33
		c2.79,4.05,8.61,4.73,13.68,5.02c9.47,0.54,18.95,1.08,28.42,1.62c2.37,0.13,4.86,0.25,6.99-0.75c4.4-2.07,5.21-7.79,4.24-12.38
		c-0.97-4.58-3.13-9.1-2.47-13.74c0.66-4.63,6.1-9.03,10.29-6.6c2.04,1.18,3,3.52,4.74,5.08c2.2,1.97,5.38,2.5,8.37,2.87
		c2.73,0.34,5.48,0.61,8.22,0.83c2.87-5.47,4.47-12.08,7.66-17.47C609.86,709.29,617.4,704.16,624.46,698.95z M1420.38,709
		c5.64,11.93,13.69,22.82,23.58,31.89c2.44,2.23,5.05,4.4,8.18,5.61c2.35,0.91,4.91,1.25,7.29,2.1c3.6,1.29,6.62,3.7,9.57,6.07
		c8,6.44,16.01,12.87,24.01,19.31 M1248.19,705.33c-9-0.84-10.03-0.85-18.64,1.79c-20.88,6.41-44.06,9.84-64.18,13.38
		 M1210.83,741.3c6.65,0.27,19.88-10.65,26.07-13.65c8.66-4.2,19.44-4.81,26.4-11.29 M657.54,626.62
		c-12.84,10.98-25.68,21.95-38.52,32.93c-15.05,12.87-24.64,29.45-35.46,45.74c-5,7.53-12.29,13.19-7.09,20.12 M588.64,619.67
		c-3.45,10-38,37.57-46.21,44.6c-25.64,21.95-30.35,29.12-30.35,64.13 M562.81,709.29c-3.34-12.18-19.42-20.03-38.56-5.09
		 M567.58,611.78c29.28,1.86,61.37,3.49,90.8,5.36 M1394.77,575.16c-13.87-3.53-29.47-1.82-41.23,6.03
		c-5.53,3.68-10.06,8.55-14.35,13.51c-16.2,18.69-33.1,50.19-38.87,58.35 M603,438c80,1,162.63,21.9,243.62,20.06
		c21.05-0.48,42.04-2.41,63.1-2.55c30.03-0.21,59.94,3.22,89.75,6.71c34.03,3.98,171.24,20.51,170.72,21.81
		c4.68,0.67,9.37,1.33,14.05,2c0.72,0.1,1.49,0.2,2.16-0.07c0.54-0.22,0.94-0.64,1.29-1.08c2.93-3.78,2.31-9.17-0.17-13.23
		s-6.46-7.09-10.32-10.08c-3.86-2.99-7.78-6.14-10.02-10.31 M1173.22,373.36c-13.05,33.36-4.27,64.25,12.33,95.08 M1257.62,547.33
		c5.19,3.78,12.04,4.57,18.53,5.24c14.43,1.48,29.41,2.94,43.85,4.43 M1156.22,396.96c11.27-8.53,16.59-21.9,21.43-34.62
		c2.43-6.39,4.88-12.81,6.22-19.48c1.54-7.64,1.62-15.48,0.99-23.22c-2-24.69-11.28-48.84-26.57-69.15 M1437.77,681.43
		c8.52-12.64,17.24-25.43,21.46-39.88c4.43-15.21,3.01-32.96-7.98-44.76c-5.3-6.38-11.47-11.88-18.24-16.49
		c-9.17-6.24-19.45-10.82-30.26-13.62c-10.63-2.75-21.66-3.81-32.62-4.86c-16.36-1.56-32.71-3.13-49.07-4.69
		c-0.04,0.28-1.66-0.41-1.66-0.41c-14.46-26.14-5.79-59.17-17.69-86.46c0.55-10.56-4.82-19.97-7.95-29.81
		c-0.44-1.38-0.83-2.76-1.16-4.16c-1.33-5.68-1.56-11.55-2.87-17.23c-1.4-6.08-4.03-11.85-6.39-17.63
		c-3.07-6.38-8.08-16.77-11.15-23.15c-1.66-3.03-2.86-5.88-4.1-8.72c-5.97-13.7-12.82-27.03-19.66-40.35
		c-9.44-18.37-18.88-36.75-29.28-54.65c-3.73-6.42-7.9-13.09-14.62-16.67c-4.46-2.38-9.63-3.17-14.68-3.92
		c-10.33-1.54-20.72-3.08-31.17-2.79c-3.7-3.17-7.39-6.58-11.08-9.99c-2.03-1.88-4.14-3.8-6.77-4.8
		c-25.76-22.1-64.06-29.56-96.92-19.28c-7.27,2.27-14.23,5.33-21.16,8.42c-9.81,4.38-19.64,8.87-28.44,14.89
		c-6.26,4.28-12.23,9.45-19.7,11.22c-14.37-1.03-29.41-1.97-44.46-2.91c-10.42-0.65-20.98-1.3-31.22,0.62
		c-32.11-3.55-63.72-5.36-95.33-5.3c-6.57,0.01-13.28,0.09-19.53-1.84c-4.3-1.33-8.23-3.56-12.06-5.84
		c-17.9-10.67-34.72-22.98-53.16-32.78c-18.44-9.79-39.01-17.09-60.11-16.53c-10.75-0.66-22.14,4.67-28.11,13.59
		c-19.42,6.92-37.02,18.4-50.82,33.15c-9.84,10.52-17.89,23.03-20.45,36.91c-1.32,7.14-1.15,14.44-0.79,21.68
		c0.32,6.32,0.78,12.66,2.21,18.84c5.04,21.78,21.35,39.35,37.06,55.87c-1.27,18.48-1.97,36.35-2.66,54.21
		c-0.13,3.27-0.12,6.91,2.18,9.34c1.32,1.39,3.29,2.24,4.18,3.91c0.56,1.06,0.6,2.29,0.63,3.48c0.1,4.7,0.21,9.4,0.31,14.09
		c0.06,2.93,0.24,6.48,2.48,8.96c1.4,1.55,3.37,2.51,5.27,3.45c4.7,2.34,9.29,4.85,13.8,7.51c3.06,1.8,6.09,3.65,9.05,5.6
		c4.34,5.3,14.33,1.18,19.05,5.88c0.84,0.84,1.44,1.91,2.46,2.54c1.13,0.7,2.57,0.72,3.91,0.72c8.9,0.06,17.79,0.69,26.6,1.89
		c3.26,0.44,6.67,1.03,9.26,2.99c4.26,3.23,4.96,9.29,3.54,14.29c-1.42,5.01-4.52,9.41-6.75,14.14c-3.94,8.34-5.13,17.57-6.99,26.55
		c-5.49,26.53-17.02,51.53-28.46,76.27c0.55,8.3-0.21,17.93-0.97,27.56c-0.39,4.93-0.79,9.9-2.15,14.68
		c-4.04,14.13-15.98,24.85-28.13,33.81c-7.06,5.21-14.6,10.34-18.98,17.75c-3.19,5.39-4.79,12-7.66,17.47
		c-1.83,3.5-4.17,6.53-7.79,8.47c-3.05,1.64-6.74,2.27-9.31,4.54c-2.99,2.64-3.87,6.98-6.97,9.5c-2.01,1.64-4.68,2.28-7.2,3.05
		c-8.47,2.6-16.25,7.24-22.41,13.36c-5.72,5.68-9.75,15.91-1.39,20.21c1.26,0.65,2.65,1.03,4.06,1.26
		c14.45,2.34,29.3,2.35,43.75,0.03c6.19-0.99,13.46-3.48,14.68-9.35c0.54-2.63-0.13-5.87,2.03-7.58c1.16-0.92,2.78-1.04,4.28-1.27
		c6.43-0.98,12.09-4.71,16.64-9.15c2.63-2.56,4.97-5.38,7.3-8.2c6.98-8.43,13.97-16.86,20.95-25.29c2.47,8.49-1.1,18.65-5.59,27.63
		s-10.03,17.74-11.63,27.57c-0.82,5.04-0.17,10.97,4.15,13.97c1.83,1.27,4.09,1.84,6.3,2.32c16.93,3.68,34.67,3.93,51.71,0.73
		c6.4-1.2,13.1-3.12,17.33-7.85c7.25-8.12,4.14-20.69-1.4-29.96c-4.53-7.59-10.54-14.74-9.94-24.14c0.27-4.19,2.46-8.14,6.26-10.26
		c7.22-4.02,14.87,0.73,20.93,5.23c8.8,6.53,18.72,13.5,29.84,12.63c3.95-0.31,8.41-1.49,11.52,0.85c1.59,1.2,2.42,3.08,3.81,4.48
		c2.69,2.7,6.93,3.16,10.65,4.28c13.52,4.06,21.56,17.71,34.51,23.19c7.2,3.05,15.33,3.31,23.19,2.96
		c12.94-0.58,25.79-2.71,38.18-6.33c4.48-1.31,9.74-3.73,8.92-8.82c-0.19-1.19-0.75-2.3-1.44-3.3c-5.73-8.2-15.99-12.3-26.11-13.81
		c-4.42-0.66-9.01-0.93-13.07-2.72c-4.61-2.03-8.07-5.8-11.76-9.13c-9.86-8.89-22.03-15.03-34-21.14
		c-14.26-7.28-28.73-14.88-39.63-26.28c-0.61-0.64-1.21-1.3-1.8-1.98c-9.83-11.23-15.73-26.32-12.01-40.43
		c0.24-0.91,0.53-1.81,0.85-2.7c2.69-7.39,8.19-13.94,15.67-17.08c6.39-0.58,13.46,0.32,20.18,2.31c7.01,2.08,13.58,5.31,20.39,7.94
		c7.21,2.78,14.72,4.88,22.36,6.26c4.15,0.75,8.36,1.29,12.42,2.4c5.07,1.39,9.82,3.65,14.53,5.9c13.31,6.35,27.17,10.31,40.5,16.59
		c0.36,0.17,0.79,0.13,1.17,0.25c13.09,4.05,31.04,9.57,48.06,12.79c8.22,1.56,16.6,2.14,24.96,2.71
		c14.81,1.02,29.62,2.04,44.43,3.06c13.53,0.93,27.09,1.86,40.65,1.5c15.89-0.43,31.67-2.63,47.4-4.83
		c22.1-3.09,44.7-6.34,64.39-16.38c4.98-2.54,9.73-5.5,14.92-7.62c12.57-5.13,26.69-4.99,40.35-5.46c4.65-0.16,9.29-0.43,13.93-0.75
		c19.67-1.36,39.24-4.13,58.47-8.35c-8.66,14.52-11.7,29.94-21.95,44.02c-9.44,12.97-19.13,25.99-32.51,35.29
		c-6,8.23-15.23,14.61-25.01,20.19c-2.21,1.26-4.45,2.48-6.68,3.68c-5.05,2.7-10.23,5.35-15.86,6.63
		c-6.33,1.44-12.94,1.1-19.44,0.75c-20.96-1.13-41.93-2.25-62.89-3.38c-2.97-0.16-6.01-0.31-8.89,0.4
		c-3.28,0.81-6.13,2.68-9.04,4.32c-17.34,9.8-38.41,12.42-55.47,22.65c-7.35,0.83-15.37,2.74-23.14,4.24
		c-5.62,1.09-11.04,2.99-15.95,5.81c-2.3,1.32-4.59,2.9-6.08,5.07c-0.85,1.24-1.43,2.65-2.38,3.82c-2.83,3.44-8,3.85-12.56,4.33
		c-21.67,2.28-42.29,12.64-56.51,28.4c-0.85,0.94-1.7,1.95-1.98,3.16c-0.58,2.54,1.56,4.91,3.82,6.37
		c5.39,3.47,12.1,4.39,18.56,5.01c8.92,0.86,17.87,1.29,26.83,1.38c6.64,0.06,14.97,0.18,19.64-4.79c2.18-2.32,3.24-5.46,5.44-7.77
		c1.44-1.51,3.31-2.59,5.16-3.63c24.98-14.04,52.09-24.63,80.22-31.32c4.14-0.99,8.31-1.89,12.48-2.79
		c-1.18,4.27-1.64,10.09,2.79,11.72c1.69,0.62,3.59,0.34,5.17-0.51c3.78-2.02,5.4-5.97,8.53-8.54c5.69-4.68,14.26-3.46,21.61-1.96
		c1.48,0.3,3.11,0.69,3.99,1.86c0.72,0.95,0.77,2.2,1.14,3.31c1.46,4.4,7.14,5.8,11.92,6.51c-10.28,9.94-21.24,19.23-32.79,27.81
		c-9.62,5.4-18.86,9.89-28.09,14.38c-5.55,2.7-11.44,5.71-14.34,10.97c-0.89,1.61-1.58,3.5-3.26,4.36
		c-1.53,0.78-3.38,0.43-5.11,0.33c-5.71-0.33-11.12,2.23-16.22,4.72c-6.63,3.25-13.26,6.49-19.89,9.74
		c-7.58,3.71-15.38,7.59-20.77,13.88c-0.74,0.87-1.46,1.84-1.57,2.95c-0.23,2.36,2.23,4.1,4.51,5.06c4.87,2.05,10.18,2.9,15.43,3.73
		c16.71,2.65,33.46,5.3,50.37,6.19c6,0.32,12.26,0.37,17.73-2.01c3.99-1.73,7.26-4.64,10.48-7.47
		c32.71-28.68,70.03-55.51,113.83-62.64c2.14,0.35,46.22,1.06,68.07,4.07c6.76,0.93,13.54,1.86,20.17,3.44
		c8.91,2.12,17.46,5.38,25.99,8.63c2.69,1.02,5.48,2.12,7.36,4.23c1.26,1.42,2,3.18,2.84,4.86c6.29,12.52,20.03,21.32,34.56,22.16
		c3.61,0.21,7.59-0.18,10.19-2.59c0.66-0.62,1.22-1.35,1.98-1.84c2.47-1.59,5.82-0.06,8.15,1.71c2.33,1.78,4.88,3.94,7.84,3.57
		c1.04-0.13,2.13-0.57,3.09-0.16c1.21,0.52,1.41,2.03,1.78,3.24c1.74,5.73,10.07,8.32,10.73,14.25c6.63,5.23,14.45,8.3,22.44,9.79
		c7.99,1.49,16.2,1.49,24.34,1.23c5.73-0.18,11.53-0.51,16.99-2.19c3.08-0.95,6.03-2.33,9.2-2.97c3.13-0.63,6.38-0.53,9.53-1.09
		c4.53-0.8,9.25-3.39,8.66-9.04c-0.12-1.12-0.48-2.21-1.03-3.21c-2.14-3.9-6.14-6.07-10.02-8.11
		c-16.72-8.79-33.94-17.28-52.64-20.97c-2.27-10.19-13.58-16.89-24.63-19.27c-11.05-2.39-22.64-1.76-33.65-4.27
		c-10.26-2.34-19.91-7.5-26.84-15.08c-6.94-7.58-11.03-17.63-10.62-27.68c5.73-15.4,24.2-23.85,29.56-39.1
		c0.94-2.69,1.44-5.5,2.4-8.18c0.86-2.41,2.09-4.69,3.32-6.95c1.82-3.36,3.67-6.7,5.54-10.04c12.08-21.58,25.05-42.7,38.88-63.29
		C1436.88,682.75,1437.33,682.09,1437.77,681.43z"/>
</g>
</svg>
